<?xml version="1.0" encoding="UTF-8"?>
<svg xmlns="http://www.w3.org/2000/svg" version="1.1" viewBox="0 0 64 64">
  <!-- Generator: Adobe Illustrator 28.7.1, SVG Export Plug-In . SVG Version: 1.2.0 Build 142)  -->
  <g>
    <g id="Outline">
      <g>
        <circle cx="13" cy="44.85046" r="1"/>
        <path d="M41,34h-3c-.55273,0-1,.44727-1,1v3c0,.55273.44727,1,1,1s1-.44727,1-1v-2h2c.55273,0,1-.44727,1-1s-.44727-1-1-1Z"/>
        <path d="M41,48h-2v-2c0-.55273-.44727-1-1-1s-1,.44727-1,1v3c0,.55273.44727,1,1,1h3c.55273,0,1-.44727,1-1s-.44727-1-1-1Z"/>
        <path d="M48,39c.55273,0,1-.44727,1-1v-3c0-.55273-.44727-1-1-1h-3c-.55273,0-1,.44727-1,1s.44727,1,1,1h2v2c0,.55273.44727,1,1,1Z"/>
        <path d="M45,50h3c.55273,0,1-.44727,1-1v-3c0-.55273-.44727-1-1-1s-1,.44727-1,1v2h-2c-.55273,0-1,.44727-1,1s.44727,1,1,1Z"/>
        <path d="M52,41h-18c-.55273,0-1,.44727-1,1s.44727,1,1,1h18c.55273,0,1-.44727,1-1s-.44727-1-1-1Z"/>
        <path d="M34,39c.55273,0,1-.44727,1-1v-5h6c.55273,0,1-.44727,1-1s-.44727-1-1-1h-7c-.55273,0-1,.44727-1,1v6c0,.55273.44727,1,1,1Z"/>
        <path d="M52,31h-7c-.55273,0-1,.44727-1,1s.44727,1,1,1h6v5c0,.55273.44727,1,1,1s1-.44727,1-1v-6c0-.55273-.44727-1-1-1Z"/>
        <path d="M52,45c-.55273,0-1,.44727-1,1v5h-6c-.55273,0-1,.44727-1,1s.44727,1,1,1h7c.55273,0,1-.44727,1-1v-6c0-.55273-.44727-1-1-1Z"/>
        <path d="M41,51h-6v-5c0-.55273-.44727-1-1-1s-1,.44727-1,1v6c0,.55273.44727,1,1,1h7c.55273,0,1-.44727,1-1s-.44727-1-1-1Z"/>
        <path d="M56.70703,29.29297l-2-2c-.1875-.1875-.44141-.29297-.70703-.29297h-2.659c.33679-1.29968.50861-2.6394.50861-4,0-8.82227-7.17773-16-16-16s-16,7.17773-16,16c0,2.58398.62622,5.05817,1.74866,7.263l-12.19495,9.26727c-1.41699,1.12402-2.28906,2.80371-2.39258,4.6084-.10352,1.80566.57031,3.57422,1.84863,4.85254,1.19238,1.19238,2.81152,1.85938,4.48926,1.85938.12012,0,.24219-.00391.36328-.01074,1.80469-.10352,3.48438-.97559,4.62109-2.4082l9.02081-11.87164c.5257.32935,1.07697.62518,1.64618.89539v16.54462c0,.26562.10547.51953.29297.70703l2,2c.1875.1875.44141.29297.70703.29297h22c.26562,0,.51953-.10547.70703-.29297l2-2c.1875-.1875.29297-.44141.29297-.70703v-24c0-.26562-.10547-.51953-.29297-.70703ZM16.75391,47.20508c-.76953.96973-1.9209,1.56738-3.15723,1.6377-1.24512.07129-2.44824-.3916-3.32324-1.26562-.87598-.87598-1.33691-2.08691-1.26562-3.32324.07031-1.23633.66797-2.3877,1.62207-3.14453l11.98956-9.11047c.86249,1.26886,1.9071,2.41333,3.10883,3.39465l-8.97437,11.81152ZM21.84961,23c0-7.71973,6.28027-14,14-14s14,6.28027,14,14c0,1.36774-.20837,2.70801-.59674,4h-2.09656c.45032-1.27716.6933-2.63379.6933-4,0-6.61719-5.38281-12-12-12s-12,5.38281-12,12c0,3.95703,1.92456,7.57532,5.15039,9.81915v2.38678c-4.38568-2.46252-7.15039-7.09607-7.15039-12.20593ZM29.29297,29.29297c-.1875.1875-.29297.44141-.29297.70703v.25757c-1.98987-1.86755-3.15039-4.45917-3.15039-7.25757,0-5.51367,4.48633-10,10-10s10,4.48633,10,10c0,1.40393-.29651,2.7428-.8493,4h-13.00031c-.26562,0-.51953.10547-.70703.29297l-2,2ZM55,53.58594l-1.41406,1.41406h-21.17188l-1.41406-1.41406v-23.17188l1.41406-1.41406h21.17188l1.41406,1.41406v23.17188Z"/>
      </g>
    </g>
  </g>
</svg>